<svg xmlns="http://www.w3.org/2000/svg" viewBox="0 0 512 512"><defs><linearGradient id="bg" x1="0" y1="0" x2="1" y2="1"><stop stop-color="#54459b"/><stop offset=".5" stop-color="#9a85e8"/><stop offset="1" stop-color="#d7cdfc"/></linearGradient><linearGradient id="box" x1="0" y1="0" x2="1" y2="1"><stop stop-color="#ffffff"/><stop offset=".6" stop-color="#efeaff"/><stop offset="1" stop-color="#cfc2ff"/></linearGradient><filter id="s"><feDropShadow dx="0" dy="16" stdDeviation="18" flood-color="#241b44" flood-opacity=".42"/></filter></defs><rect width="512" height="512" rx="112" fill="url(#bg)"/><circle cx="84" cy="90" r="44" fill="#fff" opacity=".12"/><circle cx="430" cy="423" r="78" fill="#fff" opacity=".10"/><path d="M73 382c72 66 185 77 297 27 37-17 65-39 78-61" fill="none" stroke="#f4f0ff" stroke-width="15" stroke-linecap="round" opacity=".9"/><path d="M424 334l31 14-26 27" fill="none" stroke="#f4f0ff" stroke-width="15" stroke-linecap="round" stroke-linejoin="round"/><g fill="#fff"><path d="M84 323c-28 0-51 23-51 51 0 37 51 83 51 83s51-46 51-83c0-28-23-51-51-51zm0 68a17 17 0 1 1 0-34 17 17 0 0 1 0 34z"/><path d="M426 64c-25 0-46 21-46 46 0 34 46 77 46 77s46-43 46-77c0-25-21-46-46-46zm0 62a16 16 0 1 1 0-32 16 16 0 0 1 0 32z"/></g><g filter="url(#s)"><path d="M155 151l101-50 101 50v147l-101 59-101-59z" fill="url(#box)"/><path d="M155 151l101 59 101-59-101-50z" fill="#fbf9ff"/><path d="M256 210v147" stroke="#a891f0" stroke-width="10"/><path d="M205 125l103 56" stroke="#7a64cf" stroke-width="29" stroke-linecap="round"/><path d="M194 266h67M194 291h48" stroke="#7a64cf" stroke-width="12" stroke-linecap="round"/><rect x="281" y="259" width="57" height="47" rx="9" fill="#fff" opacity=".88"/><path d="M294 274h31M294 288h20" stroke="#7a64cf" stroke-width="7" stroke-linecap="round"/></g></svg>